<?xml version="1.0" standalone="no"?>
<!DOCTYPE svg PUBLIC "-//W3C//DTD SVG 20010904//EN"
 "http://www.w3.org/TR/2001/REC-SVG-20010904/DTD/svg10.dtd">
<svg version="1.0" xmlns="http://www.w3.org/2000/svg"
 width="153.000000pt" height="87.000000pt" viewBox="0 0 153.000000 87.000000"
 preserveAspectRatio="xMidYMid meet">
<metadata>
Created by potrace 1.15, written by Peter Selinger 2001-2017
</metadata>
<g transform="translate(0.000000,87.000000) scale(0.100000,-0.100000)"
fill="#000000" stroke="none">
<path d="M407 626 c-165 -95 -298 -177 -296 -182 1 -5 136 -86 298 -180 l296
-171 3 173 c1 95 1 254 0 352 l-3 180 -298 -172z"/>
<path d="M750 460 c0 -236 1 -250 18 -241 51 27 318 184 325 191 5 4 -8 18
-29 30 l-37 23 37 21 c19 12 36 23 36 26 0 5 -320 191 -341 198 -5 2 -9 -94
-9 -248z"/>
<path d="M1243 551 c-73 -42 -135 -80 -138 -83 -5 -5 268 -168 281 -168 2 0 4
74 4 165 0 91 -3 165 -7 164 -5 0 -68 -35 -140 -78z"/>
</g>
</svg>
