<?xml version="1.0" standalone="no"?>
<!DOCTYPE svg PUBLIC "-//W3C//DTD SVG 20010904//EN"
 "http://www.w3.org/TR/2001/REC-SVG-20010904/DTD/svg10.dtd">
<svg version="1.0" xmlns="http://www.w3.org/2000/svg"
 width="315.000000pt" height="550.000000pt" viewBox="0 0 315.000000 550.000000"
 preserveAspectRatio="xMidYMid meet">

<g transform="translate(0.000000,550.000000) scale(0.100000,-0.100000)"
fill="rgb(0, 0,0)" stroke="none">
<path d="M1348 5408 l-157 -9 -56 -59 c-30 -33 -80 -86 -110 -118 -30 -32 -55
-63 -55 -68 0 -5 50 -40 112 -77 l111 -68 117 51 117 52 84 141 c46 77 85 146
87 154 4 15 -6 15 -250 1z"/>
<path d="M445 5012 l-390 -277 -3 -67 -3 -68 381 0 c209 0 380 -3 380 -6 0 -4
46 -419 101 -923 56 -504 101 -927 100 -940 0 -13 26 -609 59 -1324 33 -715
60 -1304 60 -1308 0 -5 33 -9 74 -9 l74 0 5 32 c4 18 79 487 168 1043 89 556
165 1013 168 1017 6 6 731 -59 739 -67 4 -4 191 -1971 192 -2017 0 -16 11 -18
79 -18 l78 0 6 43 c3 23 49 468 103 989 54 521 99 946 101 945 2 -2 53 -1394
53 -1443 0 -8 7 -14 15 -14 12 0 15 13 15 60 0 33 5 441 11 907 l10 848 -63
150 c-35 83 -67 157 -73 166 -7 11 -227 83 -634 208 -344 105 -628 194 -632
198 -3 5 -96 370 -205 813 -168 683 -198 820 -203 905 l-6 100 -139 80 -138
80 -32 75 c-34 83 -44 100 -54 99 -4 0 -182 -125 -397 -277z m1406 -2151 c16
-16 29 -39 29 -50 0 -50 -41 -91 -91 -91 -30 0 -79 53 -79 85 0 35 50 85 85
85 16 0 38 -12 56 -29z m448 -118 c40 -30 63 -81 58 -132 -15 -143 -203 -178
-270 -50 -35 67 -5 157 65 193 41 21 110 16 147 -11z m-376 -146 c116 -88 68
-268 -75 -284 -57 -7 -109 17 -146 65 -38 50 -39 133 0 184 55 72 152 88 221
35z"/>
</g>
</svg>
